# xmcd CD database file
#
# Track frame offsets:
#	150
#	16255
#	34512
#	51917
#	75977
#	96987
#	117905
#	137395
#	156027
#	178615
#	204567
#	218920
#	233210
#	253587
#	272240
#	290850
#	310125
#
# Disc length: 4370 seconds
#
# Revision: 1
# Processed by: cddbd v1.5PL3 Copyright (c) Steve Scherf et al.
# Submitted via: CDex 1.51
#
DISCID=eb111011
DTITLE=影山ヒロノブ - Eternity [CD5]
DYEAR=1997
DGENRE=Anime
TTITLE0=麗しのサブリナガール
TTITLE1=光のメッセージ
TTITLE2=希望の翼−汗血千里駒−
TTITLE3=いっしょになろうよ
TTITLE4=WE ARE REYSOL
TTITLE5=Do! Challenge
TTITLE6=伝説の翼
TTITLE7=GET THE WIN "J"
TTITLE8=MELODY(メロディー)
TTITLE9=光りのこども
TTITLE10=はてなのはね
TTITLE11=イカスミダ、タコスミダ
TTITLE12=好き　好き　好き
TTITLE13=セント・エルモス・ファイヤー
TTITLE14=ベイエリアの風
TTITLE15=WILD BOY
TTITLE16=BACK TO THE DREAM
EXTD=YEAR: 1997
EXTT0=
EXTT1=
EXTT2=
EXTT3=
EXTT4=
EXTT5=
EXTT6=
EXTT7=
EXTT8=
EXTT9=
EXTT10=
EXTT11=
EXTT12=
EXTT13=
EXTT14=
EXTT15=
EXTT16=
PLAYORDER=
